<svg xmlns="http://www.w3.org/2000/svg" width="692.054" height="806.751" viewBox="0 0 692.054 806.751"><g transform="translate(-588.371 -281.5)"><g transform="translate(722.548 281.5)"><path d="M12.946,0H262.67a12.946,12.946,0,0,1,12.946,12.946V132.626a12.946,12.946,0,0,1-12.946,12.946H12.946A12.946,12.946,0,0,1,0,132.626V12.946A12.946,12.946,0,0,1,12.946,0Z" transform="translate(4.852 4.852)" fill="#eceff1"/><path d="M912.841,436.777H687.48A30.014,30.014,0,0,1,657.5,406.8V311.48a30.014,30.014,0,0,1,29.98-29.98H912.841a30.014,30.014,0,0,1,29.98,29.98V406.8A30.014,30.014,0,0,1,912.841,436.777ZM687.48,291.2A20.3,20.3,0,0,0,667.2,311.48V406.8a20.3,20.3,0,0,0,20.275,20.275H912.841A20.3,20.3,0,0,0,933.116,406.8V311.48A20.3,20.3,0,0,0,912.841,291.2Z" transform="translate(-657.5 -281.5)" fill="#8f97b9"/><path d="M767.531,374.757H675v-49.39L696.457,301h49.618l21.456,22.856Z" transform="translate(-641.033 -263.151)" fill="#8f97b9"/><path d="M826.113,374.519H733.582V325.13l21.456-24.367h49.618l21.456,22.856Z" transform="translate(-585.91 -263.374)" fill="#cfd8dc"/><g transform="translate(170.646 53.837)"><path d="M0,0H9.7V21.351H0Z" fill="#b0bec5"/><path d="M0,0H9.7V21.351H0Z" transform="translate(36.878)" fill="#b0bec5"/><path d="M0,0H4.925V21.351H0Z" transform="translate(33.339 35.935) rotate(90)" fill="#b0bec5"/></g></g><g transform="translate(588.371 378.263)"><path d="M682.379,789.312c-11.4,0-24.509-2.715-26.8-16.279-2.424-14.39,6.331-30.238,13.367-42.973,1.178-2.131,2.3-4.157,3.29-6.05,4.321-8.241,8.8-16.554,13.133-24.594,9.027-16.758,18.363-34.085,26.669-51.531,17.069-35.853,28.852-68.448,36.026-99.643,6.84-29.747,10.423-63.031,10.959-101.751l9.7.134c-.545,39.417-4.21,73.366-11.205,103.791-7.333,31.892-19.345,65.141-36.721,101.642-8.41,17.661-17.8,35.1-26.888,51.959-4.321,8.016-8.787,16.306-13.08,24.5-1.023,1.951-2.178,4.041-3.391,6.24-6.306,11.413-14.156,25.617-12.294,36.665,1.535,9.111,14.811,8.936,28.926,7.383,2.77-.3,5.71-.708,8.987-1.236l1.541,9.584c-3.437.551-6.535.978-9.466,1.3A115.945,115.945,0,0,1,682.379,789.312Z" transform="translate(-525.514 -223.012)" fill="#92aed9"/><path d="M720.548,534.661c-.34-68.675-12.286-137.2-24.493-201.5l9.534-1.811c12.29,64.741,24.32,133.765,24.664,203.259Z" transform="translate(-487.044 -331.353)" fill="#92aed9"/><path d="M900.515,774.29c-148.573,0-276.659-.134-305.8-38.52-6.263-8.249-7.9-17.946-4.866-28.819,11.246-40.3,48.443-44.178,104.746-50.057,46.55-4.86,104.48-10.906,175.9-37.893,121.283-45.83,243.66-19.064,306.035,25.205,27.965,19.844,43.072,42.637,42.536,64.17-1.524,61.162-241.857,65.915-315.48,65.915h-3.071ZM1001.53,604.8a360.964,360.964,0,0,0-127.607,23.282c-72.59,27.43-133.7,33.81-178.318,38.47-54.215,5.66-86.936,9.074-96.408,43.012-2.207,7.9-1.143,14.559,3.247,20.341,26.244,34.57,158.212,34.685,298.248,34.685h2.892c88.089,0,163.553-5.239,218.238-15.147,75.614-13.705,87.3-31.762,87.541-41.306l4.85.122-4.85-.122c.452-18.2-13.2-38.1-38.452-56.014C1132.778,625.057,1071.348,604.8,1001.53,604.8Z" transform="translate(-588.371 -83.129)" fill="#92aed9"/><path d="M931.23,783.681c-148.575,0-276.659-.136-305.8-38.522-6.261-8.249-7.9-17.946-4.864-28.819,11.246-40.3,48.441-44.178,104.746-50.057,46.548-4.86,104.48-10.906,175.9-37.893,59.308-22.41,128.369-28.862,194.463-18.175,57.272,9.264,107.826,30.636,135.231,57.171,17.855,17.288,24.293,35.209,18.622,51.827l-4.594-1.568,4.594,1.568c-4.559,13.348-62.724,30.774-96.375,38.967-39.122,9.522-119.575,25.5-218.849,25.5H931.23Zm100.631-168.848c-41.17,0-84.775,6.594-127.222,22.634-72.592,27.43-133.7,33.809-178.32,38.47-54.213,5.66-86.936,9.076-96.406,43.012-2.207,7.9-1.143,14.559,3.247,20.341,26.242,34.571,158.212,34.687,298.246,34.687H934.3c71.746,0,147.7-8.73,213.869-24.58,59.3-14.2,89.2-28.744,92.219-33.468,5.409-16.124-5.833-31.5-16.236-41.573C1191.877,643.109,1117.1,614.833,1031.861,614.833Zm208.568,101.029Z" transform="translate(-559.469 -73.693)" fill="#92aed9"/><path d="M0,0H5.822V28.047H0Z" transform="translate(192.598 182.529) rotate(-59.3)" fill="#ff6369"/><path d="M0,0H35.246V5.822H0Z" transform="translate(176.063 212.551) rotate(-6.13)" fill="#ff6369"/><path d="M0,0H17.358V5.822H0Z" transform="translate(205.06 243.136) rotate(-62.884)" fill="#ff6369"/><path d="M0,0H5.824V24.261H0Z" transform="translate(252.25 229.496) rotate(-43.113)" fill="#ff6369"/><path d="M0,0H29.587V5.823H0Z" transform="translate(262.709 208.786) rotate(-6.579)" fill="#ff6369"/><path d="M0,0H21.266V5.822H0Z" transform="translate(256.323 189.557) rotate(-29.745)" fill="#ff6369"/></g><g transform="translate(643.939 655.013)"><path d="M0,0H27V315.543H0Z" transform="translate(0 19.091) rotate(-45)" fill="#37474f"/><path d="M0,0H27V16.874H0Z" transform="translate(16.704 35.795) rotate(-45)" fill="#bbc0d6"/><path d="M0,0H27V315.543H0Z" transform="translate(289.074 242.213) rotate(-135)" fill="#37474f"/><path d="M0,0H27V16.874H0Z" transform="translate(483.561 47.727) rotate(-135)" fill="#bbc0d6"/><path d="M4.8,0H84.629a4.8,4.8,0,0,1,4.8,4.8V50.882a4.8,4.8,0,0,1-4.8,4.8H4.8a4.8,4.8,0,0,1-4.8-4.8V4.8A4.8,4.8,0,0,1,4.8,0Z" transform="translate(80.609 295.752)" fill="#37474f"/><path d="M4.8,0H84.629a4.8,4.8,0,0,1,4.8,4.8V50.882a4.8,4.8,0,0,1-4.8,4.8H4.8a4.8,4.8,0,0,1-4.8-4.8V4.8A4.8,4.8,0,0,1,4.8,0Z" transform="translate(409.651 295.752)" fill="#37474f"/><path d="M641.723,715.011V612a40.577,40.577,0,0,1,40.457-40.457h384.807A40.577,40.577,0,0,1,1107.445,612V715.011Z" transform="translate(-593.737 -382.095)" fill="#b0c9f1"/><path d="M1107.445,608.73H1001.637a20.309,20.309,0,0,0-19.06-13.5H763.216a20.309,20.309,0,0,0-19.06,13.5H641.723v20.289H745.745A20.274,20.274,0,0,0,763.216,639.1H982.577a20.274,20.274,0,0,0,17.471-10.085h107.4Z" transform="translate(-593.737 -359.804)" fill="#9499ea"/><g transform="translate(177.916 244.708)"><circle cx="12.655" cy="12.655" r="12.655" fill="#fff"/><circle cx="12.655" cy="12.655" r="12.655" transform="translate(43.872 0.422)" fill="#fff"/><circle cx="12.655" cy="12.655" r="12.655" transform="translate(91.119)" fill="#fff"/><circle cx="12.655" cy="12.655" r="12.655" transform="translate(134.992 0.422)" fill="#fff"/><circle cx="12.655" cy="12.655" r="12.655" transform="translate(180.551)" fill="#ff6369"/></g></g></g></svg>