<svg xmlns="http://www.w3.org/2000/svg" width="711.133" height="418.463" viewBox="0 0 711.133 418.463"><path d="M15,0H689.881a15,15,0,0,1,15,15v388.47a15,15,0,0,1-15,15H15a15,15,0,0,1-15-15V15A15,15,0,0,1,15,0Z" transform="translate(0 0)" fill="#e5e8f5"/><path d="M15,0H689.881a15,15,0,0,1,15,15V398.106a15,15,0,0,1-15,15H15a15,15,0,0,1-15-15V15A15,15,0,0,1,15,0Z" transform="translate(5.356 0)" fill="#fff"/><path d="M539.5,311.339l-.9-8.672c0-3.071,8.078-5.583,17.953-5.583h668.97c9.874,0,17.953,2.513,17.953,5.583l.9,8.672Z" transform="translate(-533.245 -297.083)" fill="#56557e"/><g transform="translate(142.444 103.334)"><path d="M728.82,462.032H654V384.065H728.82Z" transform="translate(-653.996 -384.065)" fill="#9bd075"/><rect width="32.525" height="3.564" transform="translate(15.268 19.874)" fill="#fff"/><rect width="43.58" height="3.564" transform="translate(15.729 37.256)" fill="#fff"/><rect width="43.926" height="3.564" transform="translate(15.384 55.129)" fill="#fff"/></g><g transform="translate(244.61 206.689)"><path d="M814.82,549.032H740V471.065H814.82Z" transform="translate(-739.996 -471.065)" fill="#adadea"/><rect width="32.525" height="3.564" transform="translate(15.268 19.874)" fill="#fff"/><rect width="43.58" height="3.564" transform="translate(15.729 37.256)" fill="#fff"/><rect width="43.926" height="3.564" transform="translate(15.384 55.129)" fill="#fff"/></g><g transform="translate(363.409 142.537)"><path d="M914.82,495.033H840V417.065H914.82Z" transform="translate(-839.996 -417.065)" fill="#6fafd8"/><rect width="32.525" height="3.564" transform="translate(15.268 19.874)" fill="#fff"/><rect width="43.58" height="3.564" transform="translate(15.729 37.256)" fill="#fff"/><rect width="43.925" height="3.564" transform="translate(15.385 55.129)" fill="#fff"/></g><g transform="translate(169.767 313.607)"><path d="M751.82,639.033H677V561.065H751.82Z" transform="translate(-676.996 -561.065)" fill="#6fafd8"/><rect width="32.525" height="3.564" transform="translate(15.268 19.874)" fill="#fff"/><rect width="43.58" height="3.564" transform="translate(15.729 37.256)" fill="#fff"/></g><g transform="translate(513.095 128.281)"><path d="M1040.82,483.033H966V405.065h74.824Z" transform="translate(-965.996 -405.065)" fill="#9bd075"/><rect width="32.525" height="3.564" transform="translate(15.268 19.874)" fill="#fff"/><rect width="43.58" height="3.564" transform="translate(15.729 37.256)" fill="#fff"/><rect width="43.925" height="3.564" transform="translate(15.385 55.129)" fill="#fff"/></g><g transform="translate(425.184 298.163)"><path d="M966.82,626.033H892V548.065H966.82Z" transform="translate(-891.996 -548.065)" fill="#c7d9f5"/><rect width="32.525" height="3.564" transform="translate(15.268 19.874)" fill="#fff"/><rect width="43.58" height="3.564" transform="translate(15.729 37.256)" fill="#fff"/><rect width="43.925" height="3.564" transform="translate(15.385 55.129)" fill="#fff"/></g></svg>