<svg xmlns="http://www.w3.org/2000/svg" width="957.945" height="461.681" viewBox="0 0 957.945 461.681"><g transform="translate(-112.497 -539.024)"><g transform="translate(915.332 603.748)"><path d="M1209.849,946.946l-.21-355.327H1193.85l.58,355.327Z" transform="translate(-1126.171 -557.259)" fill="#d8984d"/><path d="M1187.566,947.629h15.375l.238-359.653H1187.39V749.8Z" transform="translate(-1127.386 -557.944)" fill="#f9b25f"/><path d="M1151.3,717.561c-1.426-.778-3.062-2.536-2.71-3.627.415-1.283,9.562-1.44,9.964-2.875,11.531-41.3,16.962-142.959,20.362-142.864,0,0,111.916-12.46,109.446,5.765,0,0-6.264,158.752-17.241,158.761C1260.68,732.735,1151.3,717.561,1151.3,717.561Z" transform="translate(-1134.689 -562.443)" fill="#56557e"/><path d="M1148.559,714.663c13.2-33.77,19-144.964,22.652-144.861,0,0,113.232-15.944,109.995,3.115,0,0-5.465,155.883-16.556,155.879C1254.1,728.793,1148.559,714.663,1148.559,714.663Z" transform="translate(-1134.686 -562.534)" fill="#bbc0d6"/><path d="M1136.881,710.74c28.051-21.06,32.582-138.411,36.2-138.309,0,0,102.483-13.024,107.275-1.124,0,0,4.307,150.021-36.666,150.929C1233.261,722.466,1136.881,710.74,1136.881,710.74Z" transform="translate(-1136.881 -562.019)" fill="#e5e8f5"/><path d="M1136.881,701.535c27.04-20.266,31.334-129.059,34.821-128.962,0,0,111.274-23.166,108.607,2.553,0,0-.972,136.607-40.468,137.476C1229.787,712.824,1136.881,701.535,1136.881,701.535Z" transform="translate(-1136.881 -562.64)" fill="#fff"/><path d="M1162.934,572.738c1.36-2.4,1.294-3.9,2.138-3.944,0,0,118.793-12.891,122.026-1.188,0,0-.119,7.7-1.441,6.617C1273.586,564.343,1161.11,575.95,1162.934,572.738Z" transform="translate(-1131.988 -562.696)" fill="#56557e"/><rect width="76.758" height="2.376" transform="translate(48.168 19.008) rotate(-0.28)" fill="#8f97b9"/><rect width="33.092" height="2.376" transform="translate(65.041 34.815) rotate(-0.28)" fill="#8f97b9"/><path d="M1187.589,605.878h-15.284l2.342-15.256h15.284Zm-12.516-2.376h10.476l1.615-10.5h-10.477Z" transform="translate(-1130.221 -557.446)" fill="#8f97b9"/><rect width="61.09" height="2.376" transform="translate(63.283 41.946) rotate(-0.28)" fill="#8f97b9"/><rect width="33.092" height="2.376" transform="translate(60.238 59.785) rotate(-0.28)" fill="#8f97b9"/><path d="M1183.547,626.895h-15.288l2.342-15.255h15.285Zm-12.52-2.376h10.48l1.61-10.5H1172.64Z" transform="translate(-1130.982 -553.495)" fill="#8f97b9"/><rect width="61.09" height="2.376" transform="translate(58.48 66.916) rotate(-0.28)" fill="#8f97b9"/><rect width="33.092" height="2.376" transform="translate(55.873 85.971) rotate(-0.28)" fill="#8f97b9"/><path d="M1179.871,648.94h-15.282l2.343-15.255h15.283Zm-12.514-2.376h10.475l1.616-10.5H1168.97Z" transform="translate(-1131.672 -549.351)" fill="#8f97b9"/><rect width="61.09" height="2.376" transform="translate(54.116 93.104) rotate(-0.28)" fill="#8f97b9"/><rect width="2.377" height="33.092" transform="translate(49.281 115.797) rotate(-88.329)" fill="#8f97b9"/><path d="M1173.99,671.883l-15.274-.522,2.865-15.167,15.274.523Zm-12.425-2.8,10.47.36L1174.007,659l-10.47-.36Z" transform="translate(-1132.776 -545.119)" fill="#8f97b9"/><rect width="2.377" height="61.091" transform="translate(47.278 122.868) rotate(-88.328)" fill="#8f97b9"/></g><g transform="translate(731.517 539.024)"><path d="M1103.1,701.43,1062.586,664.8s-27.609-51.786-24.727-68.473c.82-4.752,7.322-10.734,12.028-9.433,16.44,4.544,26.161,63.05,26.161,63.05l32.743,44.768Z" transform="translate(-971.72 -493.457)" fill="#efa88f"/><g transform="translate(76.033 159.145)"><path d="M1095.886,642.2c-3.7.908-49.909,37.561-49.731,37.932,1.821,3.81,29.113,32.147,32.481,31.319,3.7-.906,40.225-38.049,38.681-42.53S1099.58,641.294,1095.886,642.2Z" transform="translate(-1046.155 -642.176)" fill="#56557e"/><path d="M1094.195,645.881c-3.229.792-43.6,32.809-43.44,33.133,1.591,3.326,25.43,28.079,28.373,27.357,3.228-.792,35.135-33.235,33.786-37.15S1097.424,645.087,1094.195,645.881Z" transform="translate(-1045.29 -641.484)" fill="#fff"/><path d="M1097.193,648.524c-2.385.31-6.577,3.683-6.517,3.844.615,1.676,8.818,12.161,10.992,11.88,2.384-.31,5.5-1.833,5.146-3.79S1099.579,648.214,1097.193,648.524Z" transform="translate(-1037.785 -640.984)" fill="#56557e"/></g><path d="M1023.715,876.227c-6.185,0-6.068-16.669-6.068-16.669s9.135-1.445,10.646.379c1.991,2.4,3.249,10.04,7.222,12.812,7.3,5.094,24.043,14.059,22.453,17.4s-10.4,5.256-17.7.163S1026.9,876.227,1023.715,876.227Z" transform="translate(-975.48 -442.268)" fill="#f6b89f"/><path d="M1017.647,865.892c8.971-7.519,8.063,15.021,35.891,18.643,4.063.53,8.058,7.581,5.352,10.851H1044.6l-22.809-19.2v18.506h-4.139Z" transform="translate(-975.48 -441.262)" fill="#37474f"/><path d="M1066,876.227c-6.186,0-6.068-16.669-6.068-16.669s9.133-1.445,10.645.379c1.991,2.4,3.249,10.04,7.223,12.812,7.3,5.094,24.041,14.059,22.453,17.4s-10.4,5.256-17.7.163S1069.191,876.227,1066,876.227Z" transform="translate(-967.532 -442.268)" fill="#f6b89f"/><path d="M1059.931,865.892c8.969-7.519,8.062,15.021,35.89,18.643,4.063.53,8.058,7.581,5.352,10.851h-14.29l-22.809-19.2v18.506h-4.138Z" transform="translate(-967.531 -441.262)" fill="#37474f"/><path d="M1037.053,676.11l24.368-8.9c4.436,0,18.984,226.864,17.79,230.809l-12.2-.919c-2.576,0-18.319-64.4-32.781-107.933-10.753-32.364-11.961-107.949-11.961-107.949C1022.269,675.6,1032.619,676.11,1037.053,676.11Z" transform="translate(-974.611 -478.324)" fill="#814c74"/><path d="M1010.947,676.867l36.367-2.03c10.033-2.78-11.688,221.818-14.04,221.755h-12.168c-2.574-.069-22.327-182.517-21.859-190.9C999.961,693.153,1006.514,676.748,1010.947,676.867Z" transform="translate(-978.941 -476.896)" fill="#a25d91"/><path d="M1035.692,698.882c-8.619-3.6-34.1,3.143-34.1,3.143-4.436,0-1.411-14.282-.328-19.571,5.12-24.983-.986-70.142,12.483-93.732,13.314-23.321,40.564-17.118,51.147-5.821,4.164,4.442,5.475,14.742,10.839,23.641,4.6,7.638,5.478,26.681-3.5,33.006-6.573,4.633-.613,51.81-.613,51.81C1071.619,695.764,1049.591,704.682,1035.692,698.882Z" transform="translate(-978.938 -496.067)" fill="#37474f"/><path d="M1038.967,625.5c6.857-1.041,15.662,3.129,26.082,6.573,26.935,8.9,48.149-37.7,47.8-35.122l7.644,6.984c-.356,2.582-18.348,59.113-55.181,52.181-14.424-2.716-35.02-3.942-36.485-17.684C1028.813,638.323,1031.431,626.642,1038.967,625.5Z" transform="translate(-973.379 -491.552)" fill="#f6b89f"/><path d="M1005.617,609.913s1.451-21.373,8.7-25.649c1.651-.973,18.049,29.734,39.605,41.435.7.383,2.445,1.26,2.445,1.26,1.217,6.3-1.694,31.818-6.611,33.716-.528.2-3.484-1.323-4.032-1.67C1021.341,643.582,1005.339,611.967,1005.617,609.913Z" transform="translate(-977.743 -493.922)" fill="#90a4ae"/><path d="M1072.4,525.888c-3.326-7.168-15.206-6.8-15.231-6.839-25.385-39.322-63.825,41.038-63.825,41.038-9.429-24.794-21.759,35.053,5.076,41.037,12.136,2.706,47.445-27.006,51.5-36.762S1081.6,545.7,1072.4,525.888Z" transform="translate(-982.153 -508.214)" fill="#37474f"/><path d="M1029.684,574.9c-3.453,7.146,3.712,17.76,17.733,24.367,12.342,5.821,2.1-11.116,4.49-25.254,1.534-9.064-9-14.27-15.031-12.117S1033.565,566.866,1029.684,574.9Z" transform="translate(-973.379 -498.214)" fill="#f6b89f"/><path d="M1031.014,571.528a9.882,9.882,0,0,0,.371,8.561c2.339,5.108,21.228,11.346,19.937,2a51.937,51.937,0,0,1,.963-11.721c1.445-8.519-11.342-13.65-17.014-11.624S1033.728,563.651,1031.014,571.528Z" transform="translate(-973.118 -498.799)" fill="#efa88f"/><path d="M1065.065,548.324c-2.311,14.118-1.119,27.012-12.911,33.473-3.445,1.885-21.859-5.492-25.137-14.819-.84-2.387-3.623-4.063-4.957-6.556-4.175-7.806-.194-19.226,4.7-7.026,1.7,4.233,1.856-7.312,3.261-11.24,1.9-5.3,10.625-8.575,17.9-8.575,7.38,0,11.633-12.668,14.39-5.4C1064.181,533.121,1066.435,539.961,1065.065,548.324Z" transform="translate(-974.98 -504.883)" fill="#f6b89f"/><path d="M0,0H5V31.412H0Z" transform="translate(137.709 91.532) rotate(-58.456)" fill="#56557e"/><path d="M1107.552,583.117c-8.442,7.325-5.951,13.068-7.913,16.564-2.857,5.083,6.4,8.367,7.644,6.984,1.177-1.307,11.39-8.621,12.105-14.64.512-4.308-4.944-5.924-8.182-6.238C1111.207,585.787,1110.774,580.324,1107.552,583.117Z" transform="translate(-960.169 -494.283)" fill="#f6b89f"/><path d="M1091.61,680.5c-2.515,3.243-1.886,4.931.1,6.472s6.487-.972,9-4.215,3.434-5.478,1.446-7.019S1094.124,677.256,1091.61,680.5Z" transform="translate(-961.886 -476.799)" fill="#f6b89f"/></g><g transform="translate(124.036 812.285)"><rect width="109.716" height="10.73" transform="translate(9.472 106.403)" fill="#d8984d"/><path d="M518.991,745.929l19.24,179.279H533.07l-25.864-179.06Z" transform="translate(-406.98 -736.787)" fill="#d8984d"/><path d="M439.481,745.928,422.84,925.207h3.989l21.758-179.059Z" transform="translate(-422.84 -736.787)" fill="#d8984d"/><rect width="119.513" height="10.73" transform="translate(6.533)" fill="#d8984d"/></g><g transform="translate(112.497 573.516)"><path d="M559.436,729.563l-66.726-35.827s-10.977-57.651-3.271-72.729c2.194-4.291,10.18-8.078,14.288-5.433,14.349,9.222,6.249,67.974,6.249,67.974l56.477,38.34Z" transform="translate(-399.297 -522.688)" fill="#f4ca92"/><path d="M436.962,637.483c-20.938-3.672-48.945,48.52,19.563,49.206,21.747.219,38.372-34.663,42.368-69.1,3.266-28.105,2.4-45.848,21.651-52.075,15.548-5.03,5.564-28.263-28.917-28.263S476.109,644.348,436.962,637.483Z" transform="translate(-413.127 -537.248)" fill="#694a52"/><path d="M503.192,615.088l-29.633,10.287,14.473-48.517,13.992.463Z" transform="translate(-401.767 -529.802)" fill="#ffdfae"/><path d="M499.868,583.18s-8.388-5.825-14.1-5.314c0,0-3.727,12.461-1.342,15.433,2.57,3.206,10.023,2.435,13.518,1.744C502.661,593.639,499.868,583.18,499.868,583.18Z" transform="translate(-399.874 -529.618)" fill="#f4ca92"/><path d="M483.817,564.4c0,1.375-6.059-3.243-6.059,3.783,0,6.484,7.038,5.689,7.451,8.106,2.393,13.985,10.244,19.995,13.969,19.995,9.772,0,15.367-14.591,16.762-33.5a52.1,52.1,0,0,0-.386-9.979c-.321.795,2.627,8.1-16.413,8.362C490.136,561.294,483.817,544.706,483.817,564.4Z" transform="translate(-400.977 -534.323)" fill="#ffdfae"/><path d="M570.155,832.271l-7.506,1.518-7.583-34.508,15.774-1.164Z" transform="translate(-386.445 -488.208)" fill="#f4ca92"/><path d="M591.263,828.634,576.689,829l-17.181-94.867s-149,36-105.182-41.152c0,0,131.535-3.988,142.925,29.9C609.9,760.5,591.263,828.634,591.263,828.634Z" transform="translate(-406.899 -508)" fill="#9499ea"/><path d="M592.223,836.086c-1.086,2.711-27.371-.565-27.371-.565a4.49,4.49,0,0,1-4.335-4.2l-.375-7.763,9.138-.01S593.751,832.261,592.223,836.086Z" transform="translate(-385.491 -483.428)" fill="#37474f"/><path d="M486.151,816.131l-7-6.688,22.893-24.73L514.18,795.78Z" transform="translate(-400.716 -490.728)" fill="#ffdfae"/><path d="M495.506,834.289c-2.715,1.075-18.4-20.269-18.4-20.269a4.487,4.487,0,0,1,.075-6.037l5.38-5.608,7.569,7.982S499.335,832.772,495.506,834.289Z" transform="translate(-401.313 -487.408)" fill="#37474f"/><path d="M477.459,598.725c16.174-4.584,35.465,13.814,41.075,23.552,14.863,25.8-21.783,87.619-27.918,92.175-11.958,8.875-34.49,23.123-41.641,13.036-6.343-8.944.849-21.566,1.307-52.219C451.151,616.039,472.8,600.046,477.459,598.725Z" transform="translate(-406.877 -525.827)" fill="#ff6369"/><path d="M475.718,626.648c6.35-23.623,32.853-6.316,38.462,3.421,14.863,25.8-17.714,76.606-23.852,81.162-11.958,8.875-34.49,23.189-41.641,13.1-6.343-8.944,27-21.02,32.336-32.355C490.355,672.17,470.98,644.253,475.718,626.648Z" transform="translate(-406.593 -522.673)" fill="#ff6369"/><path d="M606.308,629.431l-64.762,39.263s-55.232-19.839-64.3-34.14c-2.581-4.069-1.782-12.87,2.58-15.066,15.235-7.671,61.721,29.159,61.721,29.159l61.719-29.159Z" transform="translate(-401.35 -521.986)" fill="#ffdfae"/><path d="M511.532,819.929l-11.873-8.887,46.973-69.1s-155.061,31.7-97.862-38.708c0,0,131.908-11.872,143.3,22.012C604.718,762.872,511.532,819.929,511.532,819.929Z" transform="translate(-408.808 -506.424)" fill="#adadea"/><path d="M610.091,622.045c0-5.227-13.106,4.514-18.717-2.356-4.233-5.18-13.212,1.495-13.212,6.718s9.883,6.653,16.572,6.653S610.091,627.269,610.091,622.045Z" transform="translate(-382.103 -522.102)" fill="#ffdfae"/></g><g transform="translate(272.173 654.197)"><path d="M843.316,677.224l16.92,260.543h-7.63L825.9,677.542Z" transform="translate(-495.208 -591.615)" fill="#f9b25f"/><path d="M576.807,677.224,561.126,937.767H568.2L592.95,677.544Z" transform="translate(-544.981 -591.615)" fill="#f9b25f"/><rect width="356.576" height="9.872" transform="translate(13.983 85.32)" fill="#d8984d"/><path d="M942.566,681.635H547.536V666.042h395.03Z" transform="translate(-547.536 -593.717)" fill="#f9b25f"/><g transform="translate(9.474 0)"><path d="M558.474,662.143c-4.565,0-2.495,4.98-2.495,4.98,0,.237,144.9.237,147.1,0,0,0,2.495.18,2.495-4.98C705.571,659.138,568.8,662.143,558.474,662.143Z" transform="translate(-555.511 -594.701)" fill="#bfbfbf"/><path d="M728.335,605.162H629.814c-2.323,0-2.646,2.484-4.222,5.33l-27.68,60.364c0,2.932,1.9,5.331,4.223,5.331h95.476c2.323,0,5.667-2.437,7.267-5.331l27.68-60.364C732.558,607.561,730.657,605.162,728.335,605.162Z" transform="translate(-547.54 -605.162)" fill="#d8d6dd"/><circle cx="10.692" cy="10.692" r="10.692" transform="translate(107.016 24.317)" fill="#fff"/></g></g></g></svg>