<svg xmlns="http://www.w3.org/2000/svg" width="612.568" height="909.734" viewBox="0 0 612.568 909.734"><path d="M836.269,616.062h24.185v47.983H817.681S827.79,650.938,832.82,643.2C836.39,637.7,836.269,616.062,836.269,616.062Z" transform="translate(-541.456 236.068)" fill="#ffdfae"/><path d="M805.99,644.037c-2.546,1.364-1.8,11.427-1.8,11.427s74.043,2.337,77.174-.131c2.567-2.02.162-24.522.162-24.522-20.54-2.952-21.9,8.978-27.5,8.089-3.533-.562-3.737-9.879-7.222-10.685C842.854,627.3,817.519,637.859,805.99,644.037Z" transform="translate(-560.783 253.269)" fill="#814c74"/><path d="M846.276,841.471l28.322.649-1.6-188.7,48.377-186.239H811.159l-2.852,191.63Z" transform="translate(-554.785 24.367)" fill="#37474f"/><path d="M823.359,615.213h37.314L854.146,632.3H823.359Z" transform="translate(-533.382 234.861)" fill="#8f97b9"/><path d="M933.655,548.132l-14.541-19.327,38.341-28.852,25.719,34.178s-16.552-.2-25.76.441C950.875,535.022,933.655,548.132,933.655,548.132Z" transform="translate(-397.226 70.969)" fill="#ffdfae"/><path d="M985.211,564.362c2.621,1.216,10.211-5.432,10.211-5.432s-42.652-60.568-46.508-61.587c-3.158-.836-19.693,14.616-19.693,14.616,9.993,18.186,20.347,12.1,23,17.108,1.676,3.161-5.645,8.925-4.195,12.194C949.672,544.967,973.341,558.866,985.211,564.362Z" transform="translate(-382.854 67.21)" fill="#814c74"/><path d="M1047.174,586.446l-16.51-23.021L924.233,608.2l-4.347-139.123-89.862,17.106,32.186,177.956c1.124,22.783,27.009,35.295,45.561,22.025Z" transform="translate(-497.792 27.066)" fill="#4d5b62"/><path d="M938.813,542.426l-22.436-29.815,17.577-5.059,18.512,24.6Z" transform="translate(-401.117 81.775)" fill="#8f97b9"/><path d="M870.084,310.323h35.545v71.091l-51.365-2.7Z" transform="translate(-489.437 -198.671)" fill="#f4ca92"/><path d="M1008.492,679.294S958.547,554.323,1002,425.53c14.05-41.645-13.761-93.581-26.2-93.581L925.016,330.5s-84.16,46.164-59.376,79.679c67.489,91.263-59.042,260.2-59.042,260.2C806.6,683,1008.492,691.915,1008.492,679.294Z" transform="translate(-557.215 -169.976)" fill="#9499ea"/><path d="M846.176,341.718c-2.291-7.743-9.552-20.17-3.822-35.752,16.554-45,76.915-57.235,99.233-18.736,1.957,3.379,18.509-19.2,42.42,5.524s9.639,61.679,44.757,63.733c24.413,1.429,20.63,51.185,34.372,50.127,27.927-2.148,47.034,44.266,20.768,58.005-93.094,48.7-92.021-44.4-94.884-44.04-64.118,8.014-62.66-38.671-62.66-38.671C906.751,387.713,846.176,341.718,846.176,341.718Z" transform="translate(-509.434 -264.222)" fill="#694a52"/><path d="M843.62,305.315c9.627,41.519,29.64,78.342,47.363,71.091,8.494-3.478,32.941-14.287,37.642-35.462,3.57-16.082,4.592-18.751,3.911-32.146-.325-6.4-13.083,18.99-10.62,10.063,10.756-39.022-38.9-25.968-41-25.411-24.544,6.515-40.584-5.12-39.468,1.761C841.818,297.506,842.545,300.669,843.62,305.315Z" transform="translate(-507.743 -226.271)" fill="#ffdfae"/><path d="M813.416,470.334A100.477,100.477,0,0,0,800.6,512.3c-1.281,14.471-.075,29.034,2.17,43.464,4.619,28.932,13.568,57.218,21.386,86.47,1.976,7.326,3.739,14.766,5.272,22.417,1.412,7.636,2.662,15.653,2.274,24.185-.417,8.285-1.964,17.191-7.135,25.113a31.333,31.333,0,0,1-10.225,9.906,29.58,29.58,0,0,1-13.582,4,34.4,34.4,0,0,1-24.648-9.046,32.613,32.613,0,0,1-7.707-10.586,30.13,30.13,0,0,1-2.678-12.616c.029-8.6,3.546-16.36,8.171-22.6a71.42,71.42,0,0,1,16.549-15.842,84.214,84.214,0,0,0-13.061,18c-3.3,6.445-5.137,13.514-4.277,20.041a23.138,23.138,0,0,0,9.45,15.885,23.984,23.984,0,0,0,17.179,4.641,17.282,17.282,0,0,0,13.035-9.07c2.768-4.987,3.849-11.475,3.766-18.128-.056-6.537-1.393-13.463-3.03-20.528-1.584-7.067-3.643-14.185-5.585-21.381-8.019-28.717-16.634-58.315-18.971-89.28-1.163-15.418-.688-31.24,2.945-46.5C795.474,495.662,802.609,481.07,813.416,470.334Z" transform="translate(-615.336 28.853)" fill="#bbc0d6"/><path d="M805.266,472.155c-6.542,18.317-10.414,37.094-10.7,55.947-.409,18.748,2.4,37.712,9.523,54.583a63.372,63.372,0,0,0,6.588,11.688,27.537,27.537,0,0,0,9.075,8.557,16.4,16.4,0,0,0,11.16,1.971,16.973,16.973,0,0,0,9.828-6.362,21.727,21.727,0,0,0,4.546-11.635,23.375,23.375,0,0,0-2.717-12.664,33.044,33.044,0,0,0-9.014-10.342,59.224,59.224,0,0,0-12.42-7.176,50.659,50.659,0,0,1,13.682,5.289,33.582,33.582,0,0,1,11.226,10.114,26.587,26.587,0,0,1,4.781,14.938,27.111,27.111,0,0,1-4.587,15.444,24.218,24.218,0,0,1-13.475,9.887,22.212,22.212,0,0,1-8.729.618,25.975,25.975,0,0,1-8.2-2.577,37.619,37.619,0,0,1-12.451-10.521,65.855,65.855,0,0,1-7.946-13.345,105.154,105.154,0,0,1-8.208-29.058,130.758,130.758,0,0,1-.685-29.867A123.442,123.442,0,0,1,805.266,472.155Z" transform="translate(-586.499 31.443)" fill="#bbc0d6"/><path d="M789.33,492.5c-3.456,13.054-3.585,26.043-2.269,38.933,1.339,12.936,4.233,25.629,5.965,39.226a70.109,70.109,0,0,1,.564,10.637c-.169,3.669-.586,7.8-3.165,11.885a13.583,13.583,0,0,1-2.357,2.761,11.9,11.9,0,0,1-1.279,1l-1.192.852a23.084,23.084,0,0,1-5.447,2.715,15.849,15.849,0,0,1-12.708-.94,17.626,17.626,0,0,1-7.811-9.075,23.69,23.69,0,0,1,8.777-28.562,24.241,24.241,0,0,0-5.97,17.607,20.274,20.274,0,0,0,2.574,8.351,12.373,12.373,0,0,0,5.612,5.219,8.225,8.225,0,0,0,6.675-.317,14.864,14.864,0,0,0,3.316-2l.792-.666a4.375,4.375,0,0,0,.644-.589,4.9,4.9,0,0,0,.792-1.095c.94-1.654,1.318-4.413,1.315-7.341a81.319,81.319,0,0,0-.715-9.286c-1.7-12.8-4.262-26.29-4.1-40.013C779.313,518.189,781.963,503.926,789.33,492.5Z" transform="translate(-626.456 60.375)" fill="#bbc0d6"/><path d="M793.882,535.361a48.362,48.362,0,0,1,15.457,17.8,57.485,57.485,0,0,1,4.493,11.2,76.542,76.542,0,0,1,2.533,11.72,189.011,189.011,0,0,1,1.664,23.3c.254,7.51.467,15.081,2.647,20.9a20.056,20.056,0,0,0,5.609,7.505,14.366,14.366,0,0,0,8.1,3.507c6.018.547,12.521-3.272,16.9-8.557a25.5,25.5,0,0,0,4.895-9.1,17.928,17.928,0,0,0,.23-10.194,18.123,18.123,0,0,0-5.873-8.76,34.505,34.505,0,0,0-9.823-5.578,31.216,31.216,0,0,1,10.95,4.028,19.9,19.9,0,0,1,8.026,9.126,22.078,22.078,0,0,1,1.218,12.47,30.866,30.866,0,0,1-4.865,11.548,30.429,30.429,0,0,1-9.109,8.884,23.742,23.742,0,0,1-12.841,3.8,21.442,21.442,0,0,1-12.986-4.641,29.293,29.293,0,0,1-4.793-4.65,28.7,28.7,0,0,1-3.776-5.7,39.64,39.64,0,0,1-3.388-12.429,118.5,118.5,0,0,1-.77-11.884c-.208-7.748-.058-15.256-.545-22.647-.286-3.686-.642-7.344-1.2-10.967a83.2,83.2,0,0,0-2.521-10.678,67.592,67.592,0,0,0-4.209-10.271A83.787,83.787,0,0,0,793.882,535.361Z" transform="translate(-575.296 121.317)" fill="#bbc0d6"/><g transform="translate(0 219.747)"><path d="M789.406,549.341l162.251-9.1V396.893l-162.251,9.1Z" transform="translate(-581.66 -295.321)" fill="#d8984d"/><path d="M876.449,436.247l162.251-9.234L890.448,375.766,728.2,385Z" transform="translate(-668.695 -325.363)" fill="#b27833"/><path d="M748.188,406.511l162.251-9.234-34.026-36.631L714.162,369.88Z" transform="translate(-688.652 -346.862)" fill="#d8984d"/><path d="M943.436,456.614,973.945,406.2,825.694,354.955l-30.51,50.411Z" transform="translate(-573.445 -354.955)" fill="#d8984d"/><path d="M728.186,505.608l148.437,68.6-.166-143.3L728.237,379.48Z" transform="translate(-668.711 -320.082)" fill="#f9b25f"/><path d="M836.542,443.336l74.963-12.522L763.62,379.579l-59.991,7.989Z" transform="translate(-703.629 -319.941)" fill="#d8984d"/><path d="M851.983,555.83l40.837-55.8-148.941-68.6-27.116,50.46Z" transform="translate(-684.953 -246.213)" fill="#d8984d"/><path d="M807.336,425.481l162.251-9.234-30.406-32.8L776.93,392.683Z" transform="translate(-599.4 -314.437)" fill="#f9b25f"/><path d="M819.692,497.952l158.086-13.036-26.241-28.995-162.251,9.234Z" transform="translate(-581.831 -211.389)" fill="#f9b25f"/></g><path d="M766,556.31c-4.262,9.276-3.88,19.642-1.269,28.942,2.7,9.312,8.109,17.847,15.75,23.464,7.568,5.771,17.368,8.016,27.062,7.37a64.831,64.831,0,0,0,14.536-2.575,130.883,130.883,0,0,0,14.241-4.977,78.068,78.068,0,0,1-13.468,7.225,75.8,75.8,0,0,1-7.295,2.565,59.234,59.234,0,0,1-7.654,1.523,44.953,44.953,0,0,1-15.774-.581,39.566,39.566,0,0,1-14.527-6.658,44.5,44.5,0,0,1-16.525-26.44,45.692,45.692,0,0,1-.647-15.59A31.5,31.5,0,0,1,766,556.31Z" transform="translate(-623.414 151.105)" fill="#bbc0d6"/><ellipse cx="30.967" cy="21.404" rx="30.967" ry="21.404" transform="translate(220.956 369.454)" fill="#f7e0a6"/><path d="M822.572,573.29s50.013-1.669,101.219-29.4c56.692-30.708,60.03-124.291,49.4-199.625-2.717-19.245-43.827-12.793-43.827-12.793s-21.039,123.615-10.1,166.05L818.433,545.506Z" transform="translate(-540.386 -170.082)" fill="#cfd1f0"/></svg>