<svg xmlns="http://www.w3.org/2000/svg" width="1014.93" height="323.014" viewBox="0 0 1014.93 323.014"><g transform="translate(706.913 70.114)"><path d="M1297.638,443.214H1040.789c-2.241,0-32.729.041-32.729.041l22.5-35.013a8.694,8.694,0,0,0,3.232-6.593v-88.39c0-8.389,8.3-15.253,18.44-15.253h245.4c10.142,0,18.439,6.864,18.439,15.253v114.7C1316.077,436.35,1307.78,443.214,1297.638,443.214Z" transform="translate(-1008.06 -298.006)" fill="#bbd8ef"/><g transform="translate(50.405 31.092)"><g transform="translate(0 0)"><path d="M1151.28,393.879a16.685,16.685,0,0,1-16.685,16.68h-47.844a16.685,16.685,0,0,1-16.685-16.68V346.03a16.685,16.685,0,0,1,16.685-16.686h47.844a16.685,16.685,0,0,1,16.685,16.686Z" transform="translate(-1070.066 -329.344)" fill="#55acee"/><path d="M1104.16,397.851c21.346,0,33.017-17.686,33.017-33.019,0-.5-.007-1-.034-1.5a23.515,23.515,0,0,0,5.787-6.009,23.228,23.228,0,0,1-6.661,1.827,11.673,11.673,0,0,0,5.1-6.419,23.363,23.363,0,0,1-7.369,2.82,11.605,11.605,0,0,0-20.071,7.933,11.84,11.84,0,0,0,.3,2.65,32.971,32.971,0,0,1-23.919-12.126,11.609,11.609,0,0,0,3.595,15.49,11.506,11.506,0,0,1-5.258-1.454c0,.052,0,.1,0,.148a11.606,11.606,0,0,0,9.306,11.376,11.638,11.638,0,0,1-3.054.41,11.492,11.492,0,0,1-2.182-.214,11.617,11.617,0,0,0,10.838,8.064,23.437,23.437,0,0,1-17.179,4.805,32.815,32.815,0,0,0,17.787,5.217" transform="translate(-1074.91 -334.169)" fill="#fff"/></g></g><path d="M8.254,0h65.9a8.254,8.254,0,1,1,0,16.509H8.254A8.254,8.254,0,0,1,8.254,0Z" transform="translate(154.297 35.664)" fill="#dcecf8"/><path d="M8.254,0h112a8.254,8.254,0,0,1,0,16.509h-112A8.254,8.254,0,0,1,8.254,0Z" transform="translate(154.297 62.411)" fill="#dcecf8"/><path d="M8.254,0h112a8.254,8.254,0,0,1,0,16.509h-112A8.254,8.254,0,0,1,8.254,0Z" transform="translate(154.779 88.987)" fill="#dcecf8"/></g><g transform="translate(0 204.857)"><path d="M146.292,583.248h208.94c1.823,0,26.625.033,26.625.033l-18.3-28.483a7.07,7.07,0,0,1-2.628-5.362v-71.9c0-6.824-6.751-12.408-15-12.408H146.292c-8.25,0-15,5.583-15,12.408V570.84C131.291,577.664,138.042,583.248,146.292,583.248Z" transform="translate(-131.291 -465.125)" fill="#f7c9d1"/><g transform="translate(144.668 26.61)"><path d="M375.323,543.207a13.272,13.272,0,0,1-13.27,13.269H323.989a13.271,13.271,0,0,1-13.27-13.269V505.144a13.272,13.272,0,0,1,13.27-13.274h38.065a13.274,13.274,0,0,1,13.27,13.274Z" transform="translate(-310.719 -491.87)" fill="#e4405f"/><g transform="translate(7.94 8.337)"><path d="M354.279,501.72h-18.7a15.013,15.013,0,0,0-15.013,15.014v18.7a15.011,15.011,0,0,0,15.013,15.01h18.7a15.01,15.01,0,0,0,15.011-15.01v-18.7A15.011,15.011,0,0,0,354.279,501.72Zm10.335,31.917a12.129,12.129,0,0,1-12.129,12.13H337.374a12.129,12.129,0,0,1-12.131-12.13V518.526a12.132,12.132,0,0,1,12.131-12.13h15.111a12.132,12.132,0,0,1,12.129,12.13Z" transform="translate(-320.567 -501.72)" fill="#fff"/><path d="M348.509,516.124a12.833,12.833,0,1,0,12.833,12.833A12.832,12.832,0,0,0,348.509,516.124Zm0,20.553a7.721,7.721,0,1,1,7.72-7.721A7.722,7.722,0,0,1,348.509,536.677Z" transform="translate(-323.494 -504.51)" fill="#fff"/><path d="M368.888,515.09a3.263,3.263,0,1,1-3.265-3.265A3.265,3.265,0,0,1,368.888,515.09Z" transform="translate(-328.664 -503.678)" fill="#fff"/></g></g><path d="M6.715,0H59.223a6.715,6.715,0,0,1,0,13.43H6.715A6.715,6.715,0,0,1,6.715,0Z" transform="translate(125.049 45.092) rotate(-180)" fill="#f7e4e7"/><path d="M6.715,0H96.081a6.715,6.715,0,1,1,0,13.43H6.715A6.715,6.715,0,0,1,6.715,0Z" transform="translate(125.049 66.85) rotate(180)" fill="#f7e4e7"/><path d="M6.715,0H96.081a6.715,6.715,0,1,1,0,13.43H6.715A6.715,6.715,0,0,1,6.715,0Z" transform="translate(124.657 88.469) rotate(180)" fill="#f7e4e7"/></g><g transform="translate(395.421 10.252)"><path d="M852.665,339.565H647.825c-1.787,0-26.1.033-26.1.033l17.946-27.924a6.933,6.933,0,0,0,2.577-5.258V235.924c0-6.69,6.618-12.164,14.706-12.164H852.665c8.089,0,14.706,5.474,14.706,12.164V327.4C867.371,334.091,860.753,339.565,852.665,339.565Z" transform="translate(-621.723 -223.76)" fill="#ef96a0"/><g transform="translate(39.893 24.261)"><g transform="translate(0 0)"><path d="M17.564,0H48.6A17.564,17.564,0,0,1,66.162,17.564V48.6A17.568,17.568,0,0,1,48.595,66.164H17.564A17.564,17.564,0,0,1,0,48.6V17.564A17.564,17.564,0,0,1,17.564,0Z" fill="#bd081c"/><g transform="translate(18.758 15.631)"><g transform="translate(0 0)"><path d="M706.517,295.765a7.322,7.322,0,0,0,7.572,2.08,15.386,15.386,0,0,0,1.634-.6,10.148,10.148,0,0,0,2.845-1.8,14.1,14.1,0,0,0,4.288-8.034,12.653,12.653,0,0,0-8.58-15.162,15.833,15.833,0,0,0-9.966-.207,14.682,14.682,0,0,0-2.69,1.18,13.2,13.2,0,0,0-6.273,7.814,15.717,15.717,0,0,0-.491,2.747,11.687,11.687,0,0,0,1.293,6.433c.16.314.361.6.512.922a5.621,5.621,0,0,0,1.567,2.016,1.671,1.671,0,0,0,1.092.419c.561-.039.7-.577.855-1.041a15.2,15.2,0,0,0,.339-1.577,1.283,1.283,0,0,0-.184-1.192c-2.36-3.351-1.55-8.777,1.358-11.494a10.282,10.282,0,0,1,8.975-2.7,8.716,8.716,0,0,1,6.811,5.193,11.471,11.471,0,0,1,.647,3.94,12.09,12.09,0,0,1-.939,4.995,8.836,8.836,0,0,1-2.694,3.706c-1.811,1.367-5.616,1.96-6.382-.886a5.5,5.5,0,0,1-.07-2.319c.359-1.788,1.043-3.484,1.455-5.254a5.8,5.8,0,0,0,.1-2.856,2.509,2.509,0,0,0-2.188-2.029,3.256,3.256,0,0,0-3.161,1.194,7.206,7.206,0,0,0-.968,6.762,2.624,2.624,0,0,1,.085,1.495c-.718,2.91-1.343,5.843-2.091,8.742a20.194,20.194,0,0,0-.585,6.025,9.1,9.1,0,0,0,.169,1.682c.085.37.221.9.584,1.092.5.265.927-.375,1.163-.722a19.511,19.511,0,0,0,2.206-4.468c.358-1.015.636-2.054.907-3.1C705.817,298.4,706.346,296.514,706.517,295.765Z" transform="translate(-694.808 -271.342)" fill="#fff" fill-rule="evenodd"/></g></g></g></g><path d="M6.583,0H58.9a6.583,6.583,0,0,1,0,13.166H6.583A6.583,6.583,0,0,1,6.583,0Z" transform="translate(123.054 28.283)" fill="#f5c1c7"/><path d="M6.583,0h92.5a6.583,6.583,0,0,1,0,13.166H6.583A6.583,6.583,0,0,1,6.583,0Z" transform="translate(123.054 49.614)" fill="#f5c1c7"/><path d="M6.583,0h92.5a6.583,6.583,0,0,1,0,13.166H6.583A6.583,6.583,0,0,1,6.583,0Z" transform="translate(123.438 70.808)" fill="#f5c1c7"/></g><g transform="translate(139.276)"><path d="M315.192,298.928H470.641c1.356,0,19.808.025,19.808.025l-13.619-21.191a5.262,5.262,0,0,1-1.955-3.989v-53.5c0-5.077-5.022-9.232-11.16-9.232H315.192c-6.138,0-11.16,4.155-11.16,9.232V289.7C304.032,294.774,309.054,298.928,315.192,298.928Z" transform="translate(-304.032 -211.045)" fill="#a8bce8"/><g transform="translate(107.737 19.033)"><path d="M12.724,0H35.205A12.726,12.726,0,0,1,47.931,12.726V35.2A12.724,12.724,0,0,1,35.207,47.929H12.724A12.723,12.723,0,0,1,0,35.205V12.724A12.724,12.724,0,0,1,12.724,0Z" fill="#3b5999"/><path d="M479.179,245.445H483.6v-6.95h-6.626a8.984,8.984,0,0,0-6.823,3.348s-1.808,1.706-1.836,6.7h0v5.213h-6.549v7.38h6.549V280.2h7.554V261.135h6.5l.906-7.38h-7.4v-5.213h0A3.031,3.031,0,0,1,479.179,245.445Z" transform="translate(-442.326 -232.27)" fill="#fff"/></g><path d="M5,0H43.478a5,5,0,0,1,0,9.991H5A5,5,0,0,1,5,0Z" transform="translate(93.035 31.056) rotate(-180)" fill="#d0d9eb"/><path d="M5,0H74.124a5,5,0,1,1,0,9.991H5A5,5,0,0,1,5,0Z" transform="translate(93.034 47.244) rotate(-180)" fill="#d0d9eb"/><path d="M5,0H74.124a5,5,0,1,1,0,9.991H5A5,5,0,0,1,5,0Z" transform="translate(92.742 63.328) rotate(-180)" fill="#d0d9eb"/></g></svg>