<svg xmlns="http://www.w3.org/2000/svg" width="207.942" height="399.788" viewBox="0 0 207.942 399.788"><ellipse cx="90.536" cy="24.42" rx="90.536" ry="24.42" transform="translate(0 350.948)" fill="#eaeff4"/><path d="M1186.134,1011c-1.842-1.36-6.291-6.661-6.291-6.661h-15.3c-3.607,3.083-2.957,18.749-2.957,18.749h49.093C1212.036,1016.382,1191.639,1015.06,1186.134,1011Z" transform="translate(-1118.042 -646.865)" fill="#8f97b9"/><path d="M1253.146,1011c-1.843-1.36-6.291-6.661-6.291-6.661h-15.3c-3.607,3.083-2.957,18.749-2.957,18.749h49.094C1279.047,1016.382,1258.65,1015.06,1253.146,1011Z" transform="translate(-1131.024 -646.865)" fill="#8f97b9"/><path d="M1235.852,962.385h-18.318s-6.873-94.812-6.986-95.091c-6.987-17.095-10.34-48.231-10.34-48.231l-18.7,143.322s-18.308.438-18.356,0c-3.159-28.453,7.526-91.271,7.526-91.271l-6.214-87.675h70.967l3.224,81.093Z" transform="translate(-1118.24 -604.07)" fill="#37474f"/><path d="M1179.334,602.172c0,16.064,11.521,38.258,23.9,38.258s16.454-17.161,25.179-30.11c3.71-5.507,5.336-19.081-2.428-20.655a28.67,28.67,0,0,0-7.846-.319C1203.821,576.147,1179.334,586.108,1179.334,602.172Z" transform="translate(-1121.489 -565.284)" fill="#455a64"/><rect width="20.645" height="26.903" transform="translate(73.807 68.884)" fill="#ffdfae"/><rect width="10.773" height="11.6" transform="translate(20.178 6.004)" fill="#ffdfae"/><path d="M3.446,14.717s17.225.094,24.016-4.254a64.486,64.486,0,0,1-5.7-8.524C16.226-.026,4.829-1.187.95,1.905-2.186,4.406,3.446,14.717,3.446,14.717Z" transform="matrix(-0.695, -0.719, 0.719, -0.695, 87.626, 88.104)" fill="#f4ca92"/><path d="M1342.775,630.706c2.2,2.583.563,6.505-3.306,9.795s-8.509,4.7-10.7,2.118-.175-6.975,3.693-10.265S1340.578,628.123,1342.775,630.706Z" transform="translate(-1150.263 -574.194)" fill="#ffdfae"/><path d="M1231.406,747.75l-75-.521,5.935-75.019c0-2.155-23.171-16.592-29.942-30.618-4.914-10.18-1.564-62.506-1.564-62.506l12.794,1.435,7.03,51.9c6.5,1.393,32.874,13.673,34.987,13.673,0,0,5.465,10.6,11.718,10.543,8.352-.08,8.987-8.057,8.987-8.057l26.164,6.285,32.6-3.681,25.21-25.4,10.049,6.184s-18.3,26.881-26.213,34.721c-7.738,7.666-46.84,8.733-46.84,8.733Z" transform="translate(-1111.878 -564.481)" fill="#9499ea"/><path d="M1185.563,618.479c.347,4.554,4.8,6.037,5.621,10.088,2.19,10.853,11.66,21.781,20.518,21.781,7.507,0,18.455-14.236,18.455-30.3a73.984,73.984,0,0,0-.778-11.488c-1.073-6.635-16.587,11.5-30.72-3.5-3.3-3.508-2.857,11.6-7.133,11.6C1191.34,616.652,1184.906,609.844,1185.563,618.479Z" transform="translate(-1122.687 -569.41)" fill="#ffdfae"/><g transform="translate(160.802 10.657)"><ellipse cx="4.416" cy="7.896" rx="4.416" ry="7.896" transform="matrix(0.643, -0.766, 0.766, 0.643, 0, 39.138)" fill="#fff"/><path d="M1346.122,636.364l-2.744,3.269a1.314,1.314,0,0,1-1.845.051l-11.5-9.652a1.313,1.313,0,0,1-.269-1.825l2.744-3.269a1.313,1.313,0,0,1,1.845-.051l8.439,9.106,3.06.545A1.314,1.314,0,0,1,1346.122,636.364Z" transform="translate(-1311.384 -583.943)" fill="#37474f"/><circle cx="7.209" cy="7.209" r="7.209" transform="translate(27.577 5.307)" fill="#fff"/><path d="M1354.2,597.921c-11.855,2-26.7,18.413-26.7,18.413l-11.794-9.9s16.491-17.786,12.807-30.074C1328.467,576.219,1354.293,597.9,1354.2,597.921Z" transform="translate(-1308.71 -574.61)" fill="#fff"/><path d="M2.449,0H9.668a2.449,2.449,0,0,1,2.449,2.449V18.471A2.449,2.449,0,0,1,9.668,20.92H2.449A2.449,2.449,0,0,1,0,18.471V2.449A2.449,2.449,0,0,1,2.449,0Z" transform="matrix(0.643, -0.766, 0.766, 0.643, 0.752, 34.254)" fill="#ff6369"/><path d="M1.373,0A1.373,1.373,0,0,1,2.746,1.373V33.795a1.373,1.373,0,0,1-1.373,1.373h0A1.373,1.373,0,0,1,0,33.795V1.373A1.373,1.373,0,0,1,1.373,0Z" transform="matrix(0.643, -0.766, 0.766, 0.643, 18.437, 2.104)" fill="#ff6369"/></g><ellipse cx="3.238" cy="6.077" rx="3.238" ry="6.077" transform="matrix(0.596, -0.803, 0.803, 0.596, 182.167, 55.974)" fill="#ffdfae"/><path d="M1131.2,565.581c.64-3.5,1.725-5.719,8.95-4.035,4.507,1.05,8.178,3.553,7.539,7.051s-4.955,4.88-9.508,4.047S1130.559,569.079,1131.2,565.581Z" transform="translate(-1112.147 -560.972)" fill="#ffdfae"/></svg>