<svg xmlns="http://www.w3.org/2000/svg" xmlns:xlink="http://www.w3.org/1999/xlink" width="1047.709" height="730.501" viewBox="0 0 1047.709 730.501"><defs><linearGradient id="a" y1="0.5" x2="1" y2="0.5" gradientUnits="objectBoundingBox"><stop offset="0" stop-color="#f8bbd0"/><stop offset="0.102" stop-color="#f8b0c4"/><stop offset="0.286" stop-color="#f994a5"/><stop offset="0.529" stop-color="#fb6772"/><stop offset="0.82" stop-color="#fd292e"/><stop offset="1" stop-color="red"/></linearGradient><linearGradient id="b" y1="0.5" x2="1" y2="0.5" gradientUnits="objectBoundingBox"><stop offset="0" stop-color="#f8bbd0"/><stop offset="0.133" stop-color="#f8bac4"/><stop offset="0.372" stop-color="#f8b7a5"/><stop offset="0.686" stop-color="#f9b473"/><stop offset="1" stop-color="#fbb03b"/></linearGradient><linearGradient id="c" y1="0.5" x2="1" y2="0.5" gradientUnits="objectBoundingBox"><stop offset="0" stop-color="#cce0f4"/><stop offset="0.12" stop-color="#b7d9d4"/><stop offset="0.262" stop-color="#a3d2b7"/><stop offset="0.413" stop-color="#94cda0"/><stop offset="0.576" stop-color="#89c990"/><stop offset="0.758" stop-color="#83c787"/><stop offset="1" stop-color="#81c784"/></linearGradient></defs><g transform="translate(-26.999 -295.772)"><path d="M1099.51,299.262c29.79,47.922,74.108,277.51-55.694,328.984-60.706,24.073-62.875,172.39-146.274,178.171S623.324,709.7,562.212,759.454C331.427,947.36,94.611,836.889,84.443,693.586,78.662,612.105,116.788,486.281,219.4,506.64,403.54,543.175,181.192,231.62,439.53,254.428c170.388,15.043,215.959-81.549,283.072-108C900.046,76.485,1055.657,228.715,1099.51,299.262Z" transform="translate(-56.879 167.292)" fill="#f2f5f8" opacity="0.301"/><g transform="translate(254.337 523.529)"><circle cx="4.183" cy="4.183" r="4.183" transform="translate(186.652 50.323)" fill="url(#a)"/><circle cx="4.183" cy="4.183" r="4.183" transform="translate(203.105 50.323)" fill="url(#b)"/><circle cx="4.183" cy="4.183" r="4.183" transform="translate(219.558 50.323)" fill="url(#c)"/><path d="M0,0H97.725V105.02H0Z" transform="translate(276.361 392.3)" fill="#bfbfbf"/><path d="M643.335,1021.266v-11.393c0-8.64,11.412-15.709,25.36-15.709H820.95c13.948,0,25.36,7.069,25.36,15.709v11.393Z" transform="translate(-419.6 -523.946)" fill="#d8d6dd"/><path d="M8.337,0H642.109a8.337,8.337,0,0,1,8.337,8.337V404.967a8.337,8.337,0,0,1-8.337,8.337H8.337A8.337,8.337,0,0,1,0,404.967V8.337A8.337,8.337,0,0,1,8.337,0Z" fill="#d8d6dd"/><path d="M8.337,0H603.847a8.337,8.337,0,0,1,8.337,8.337V325.583a8.337,8.337,0,0,1-8.337,8.337H8.337A8.337,8.337,0,0,1,0,325.583V8.337A8.337,8.337,0,0,1,8.337,0Z" transform="translate(19.131 21.004)" fill="#fff"/><g transform="translate(175.059 43.145)"><path d="M8.337,0h346.42a8.337,8.337,0,0,1,8.337,8.337V204.458a8.337,8.337,0,0,1-8.337,8.337H8.337A8.337,8.337,0,0,1,0,204.458V8.337A8.337,8.337,0,0,1,8.337,0Z" transform="translate(0 0)" fill="#e5e8f5"/><path d="M583.04,487.2l-.077-13.823a9.105,9.105,0,0,1,9.248-8.9h344.6a9.105,9.105,0,0,1,9.247,8.9l-.13,13.823Z" transform="translate(-582.963 -464.474)" fill="#56557e"/></g><g transform="translate(391.679 100.123)"><path d="M859.295,629.617a59.98,59.98,0,0,1,23.011-81.643L911.622,600.3Z" transform="translate(-851.632 -537.628)" fill="#6fafd8"/><path d="M860.85,651.261l52.327-29.316,29.316,52.328A59.979,59.979,0,0,1,860.85,651.261Z" transform="translate(-853.417 -551.959)" fill="#9499ea"/><path d="M927.125,595.133l-29.316-52.327a59.98,59.98,0,0,1,81.643,23.011c10.12,18.063,9.908,40.9,1.238,56.316C980.671,622.168,927.125,595.133,927.125,595.133Z" transform="translate(-860.577 -535.143)" fill="#ff6369"/></g><g transform="translate(54.579 85.844)"><path d="M8.337,0H358.925a8.337,8.337,0,0,1,8.337,8.337V206.542a8.337,8.337,0,0,1-8.337,8.337H8.337A8.337,8.337,0,0,1,0,206.542V8.337A8.337,8.337,0,0,1,8.337,0Z" transform="translate(0 5.363)" fill="#e5e8f5"/><path d="M8.337,0h346.42a8.337,8.337,0,0,1,8.337,8.337V204.458a8.337,8.337,0,0,1-8.337,8.337H8.337A8.337,8.337,0,0,1,0,204.458V8.337A8.337,8.337,0,0,1,8.337,0Z" transform="translate(6.114 0)" fill="#fafafa"/><path d="M441.195,540.155l-.077-13.823a9.105,9.105,0,0,1,9.248-8.9h344.6a9.1,9.1,0,0,1,9.247,8.9l-.131,13.823Z" transform="translate(-435.004 -517.433)" fill="#56557e"/><circle cx="4.183" cy="4.183" r="4.183" transform="translate(17.707 7.178)" fill="#fa538d"/><circle cx="4.183" cy="4.183" r="4.183" transform="translate(34.16 7.178)" fill="#fab353"/><circle cx="4.183" cy="4.183" r="4.183" transform="translate(50.613 7.178)" fill="#9dc925"/></g><g transform="translate(90.367 116.806)"><rect width="22.436" height="59.348" transform="translate(8.883 104.863)" fill="#b0c9f1"/><rect width="22.436" height="34.436" transform="translate(8.883 129.775)" fill="#92aed9"/><rect width="22.436" height="75.947" transform="translate(53.755 88.264)" fill="#ffca57"/><rect width="22.436" height="53.395" transform="translate(53.755 110.816)" fill="#fcad00"/><rect width="22.436" height="113.803" transform="translate(98.626 50.408)" fill="#b0c9f1"/><rect width="22.436" height="92.344" transform="translate(98.626 71.867)" fill="#92aed9"/><rect width="22.436" height="76.474" transform="translate(143.498 87.737)" fill="#ffca57"/><rect width="22.436" height="57.52" transform="translate(143.498 106.691)" fill="#fcad00"/><rect width="22.436" height="119.395" transform="translate(188.369 44.816)" fill="#b0c9f1"/><rect width="22.436" height="96.951" transform="translate(188.369 67.259)" fill="#92aed9"/><rect width="22.436" height="136.067" transform="translate(233.241 28.144)" fill="#ffca57"/><rect width="22.436" height="124.581" transform="translate(233.241 39.63)" fill="#fcad00"/><path d="M761.642,755.345H482.25c-.891,0-3-.414-3.8,0a1.534,1.534,0,0,1-.508,0c-.029,0-.031,4.031,0,4.031H757.337c.89,0,3,.414,3.8,0,.11-.057.373,0,.507,0,.03,0,.031-4.031,0-4.031Z" transform="translate(-477.921 -594.45)" fill="#b0c9f1"/><path d="M489.026,637.257l-1.249-2.071,101.611-61.255L632.6,625l73.157-62.268,1.568,1.842-75,63.841-43.45-51.349Z" transform="translate(-479.831 -557.171)" fill="#b0c9f1"/><path d="M745.25,562.257l20.777-6.422-10.442,16.911Z" transform="translate(-529.711 -555.835)" fill="#b0c9f1"/></g></g></g></svg>